# xmcd
#
# Track frame offsets: 
#        150
#        19362
#        29322
#        45352
#        59242
#        72632
#        82272
#        92225
#        102942
#        114805
#        127197
#        134990
#        144735
#        156402
#
# Disc length: 2315 seconds
#
# Revision: 2
# Processed by: cddbd v1.5.2PL0 Copyright (c) Steve Scherf et al.
# Submitted via: ExactAudioCopy v0.95a5
#
DISCID=dd09090e
DTITLE=Various Artist - Country Greatest 10
DYEAR=1993
DGENRE=Country
TTITLE0=The Buoys - Give up your guns
TTITLE1=Johnny Cash - Get rhythm
TTITLE2=Lynn Anderson - The devil went to Georgia
TTITLE3=Frankie Laine - Still runs cool water
TTITLE4=B. J. Thomas - I just can`t help believing
TTITLE5=Dale @ Grace - I`m leaving it (all) up to you
TTITLE6=Ray Stevens - Turn your radio on
TTITLE7=The Everly Brothers - All I have to do is dream
TTITLE8=Lucille Star - Are you teasing me
TTITLE9=George Jones @ Gene Pitney - Louisiana man
TTITLE10=Roger Miller - Dang me
TTITLE11=Ricky Nelson - Poor little fool
TTITLE12=Kingston Trio - Greenback dollar
TTITLE13=Glen Campbell - Southern nights
EXTD=
EXTT0=
EXTT1=
EXTT2=
EXTT3=
EXTT4=
EXTT5=
EXTT6=
EXTT7=
EXTT8=
EXTT9=
EXTT10=
EXTT11=
EXTT12=
EXTT13=
PLAYORDER=
